<?xml version="1.0" encoding="utf-8"?>
<!-- Generator: Adobe Illustrator 17.1.0, SVG Export Plug-In . SVG Version: 6.00 Build 0)  -->
<!DOCTYPE svg PUBLIC "-//W3C//DTD SVG 1.1//EN" "http://www.w3.org/Graphics/SVG/1.1/DTD/svg11.dtd">
<svg version="1.1" id="Layer_1" xmlns="http://www.w3.org/2000/svg" xmlns:xlink="http://www.w3.org/1999/xlink" x="0px" y="0px"
	 viewBox="0 0 577.8 170" enable-background="new 0 0 577.8 170" xml:space="preserve">
<g>
	<path fill="#FFFFFF" d="M53.3,80.6c-8.2-3.2-14.2-4.7-13.7-8.9c0.5-3.3,4.4-3.9,10-3.9c8.9,0,18.2,3.7,18.2,3.7l1.8-3
		c10-17.2-0.7-22.6-12.3-24.4c-3.5-0.5-7.4-1.1-11.6-1.1c-23.7,0-36.1,12.3-38.6,29.1C5.3,85,11.9,93.6,26.1,98.7
		c7,2.5,12.8,4.6,12.3,8.4c-0.3,3.9-4.6,4-11,4c-11,0-21-4.7-21-4.7L0,128.3c0,0,11.9,6.7,31.7,6.7c22.4,0,37.3-11.9,40-29.6
		C73.6,92.2,65,85.2,53.3,80.6z"/>
	<path fill="#FFFFFF" d="M138.6,43.5c-17.2,0-26.3,13.1-26.3,13.1h-0.5l-2.1-11.4H85.5L68.2,167.9h33.3l5.6-40.1
		c0.5,0,4.4,6.8,14,6.8c24.4,0,38-17.9,42.1-45.6C167.2,60.1,156.1,43.5,138.6,43.5z M129.9,90.2c-2.8,19.1-8.9,22.4-15.2,22.4
		c-2.8,0-5.3-1.2-5.3-1.2l5.6-40.1c0,0,3.2-2.8,6.8-2.8C126.9,68.5,132.5,71,129.9,90.2z"/>
	<path fill="#FFFFFF" d="M229.1,43.1c-17.7,0-26.6,13.5-26.6,13.5h-0.5l-2.1-11.4h-24.2l-12.3,87.6h33.3l8.1-58.4
		c0,0,3.3-2.5,11.6-2.5c5.8,0,12.6,2.5,12.6,2.5l1.8-3.3C243.6,46.4,234.5,43.1,229.1,43.1z"/>
	<path fill="#FFFFFF" d="M268.7,0.9c-13.1,0-18.7,6.8-20,15.4c-1.4,10.2,2.5,15.8,14.7,15.8c10.9,0,17.9-5.6,19.3-15.8
		C283.9,7,277.8,0.9,268.7,0.9z"/>
	<path fill="#FFFFFF" d="M362.4,106.9l3.9-28.6c2.6-20-3.9-34.9-23.1-34.9c-18.4,0-27.5,14.9-27.5,14.9h-0.5l-1.8-13.1h-24.2
		l-12.3,87.6h33.3l8.2-59.6c0,0,3.2-2.6,6.7-2.6c5.8,0,8.4,4.4,7.2,13.1l-3.9,27c-2.3,15.4,3.5,23.8,18.4,23.8
		c17.2,0,23-11,21.7-19.6C362.6,115.1,361.7,112.7,362.4,106.9z"/>
	<path fill="#FFFFFF" d="M424.3,23h-26.1l-7.5,22.3l-14,3.5L374,67.1h10.7l-5.1,36.1c-3.3,23.5,2.8,31.4,21,31.4
		c13.3,0,24.4-4.9,24.4-4.9l1.2-20.2c0,0-3.2,0.3-7.2,0.3c-3.3,0-7-0.5-6.1-6.7l5.1-36.1h15.1l3.2-21.9h-15.1L424.3,23z"/>
	<path fill="#FFFFFF" d="M475.8,115c-6,0.2-7.2-2.3-6.5-8.1L483,10.2C484.1,2.3,478.6,0,466,0c-9.1,0-16.1,1.4-16.1,1.4
		s0.5,3.2-0.4,10l-14,99.4c-2.1,15.4,3.7,23.8,18.6,23.8C471.3,134.6,477.1,123.5,475.8,115z"/>
	<path fill="#FFFFFF" d="M542.8,45.2l-3.3,8.8c-13.8,36.6-18.6,58.7-18.6,58.7h-0.5c0,0,2.5-21.9-1.4-58.7
		c-0.9-7.9-6.3-10.2-18.2-10.2c-9.1,0-16.8,1.4-16.8,1.4s1.2,3.2,2.6,9.8l16.3,79.9c-4.4,9.6-7.7,10.7-14.9,10.7
		c-5.1,0-10.7-1.4-10.7-1.4l-2.1,3.9c-7.7,14.4,4,21.9,16.8,21.9c18.7,0,29.6-7.9,40.5-29.8l45.2-93.6l0.2-1.4H542.8z"/>
	<path fill="#FFFFFF" d="M259.3,43.1c-8.1,0-14.8,5.9-16.2,13.6l0,0l-0.1,0.9c0,0.1,0,0.2,0,0.3l-10.6,74.9h33.3l9.7-69.9
		c0.1-0.7,0.2-1.3,0.3-2l0-0.2l0,0c0-0.4,0.1-0.8,0.1-1.1C275.7,50.5,268.4,43.1,259.3,43.1z"/>
</g>
</svg>
