<?xml version="1.0" encoding="utf-8"?>
<!-- Generator: Adobe Illustrator 17.0.0, SVG Export Plug-In . SVG Version: 6.00 Build 0)  -->
<!DOCTYPE svg PUBLIC "-//W3C//DTD SVG 1.1//EN" "http://www.w3.org/Graphics/SVG/1.1/DTD/svg11.dtd">
<svg version="1.1" id="Layer_1" xmlns="http://www.w3.org/2000/svg" xmlns:xlink="http://www.w3.org/1999/xlink" x="0px" y="0px"
	 width="340.138px" height="46.836px" viewBox="0 0 340.138 46.836" enable-background="new 0 0 340.138 46.836"
	 xml:space="preserve">
<path fill="#FFFFFF" d="M67.887,43.614c-4.814,0-9.16-0.529-13.035-4.404l4.991-4.99c2.524,2.524,5.813,2.877,8.161,2.877
	c2.643,0,5.402-0.881,5.402-3.171c0-1.526-0.822-2.583-3.229-2.818l-4.815-0.47c-5.519-0.528-8.924-2.936-8.924-8.572
	c0-6.342,5.578-9.747,11.801-9.747c4.757,0,8.75,0.822,11.686,3.581l-4.697,4.757c-1.762-1.585-4.463-2.056-7.105-2.056
	c-3.053,0-4.344,1.41-4.344,2.935c0,1.116,0.469,2.408,3.17,2.643l4.814,0.471c6.048,0.586,9.102,3.816,9.102,8.982
	C80.864,40.384,75.11,43.614,67.887,43.614z"/>
<path fill="#FFFFFF" d="M94.189,43.261c-6.224,0-8.866-4.403-8.866-8.749V19.364h-3.229v-5.812h3.229V4.508h7.633v9.043h5.402v5.812
	h-5.402v14.68c0,1.761,0.822,2.76,2.643,2.76h2.76v6.458H94.189z"/>
<path fill="#FFFFFF" d="M101.749,7.444V1.221h7.81v6.223H101.749z M101.866,43.261V12.67h7.634v30.591H101.866z"/>
<path fill="#FFFFFF" d="M126.749,43.614c-6.106,0-13.681-3.289-13.681-15.678s7.574-15.618,13.681-15.618
	c4.228,0,7.398,1.292,10.099,4.11l-5.166,5.167c-1.586-1.702-2.936-2.407-4.933-2.407c-1.82,0-3.229,0.646-4.345,1.996
	c-1.174,1.468-1.703,3.523-1.703,6.752c0,3.23,0.529,5.344,1.703,6.811c1.115,1.351,2.524,1.996,4.345,1.996
	c1.997,0,3.347-0.704,4.933-2.407l5.166,5.108C134.147,42.263,130.977,43.614,126.749,43.614z"/>
<path fill="#FFFFFF" d="M157.907,43.261l-7.516-12.741l-3.229,3.641v9.101h-7.633V1.455h7.633v23.721l10.158-12.506h9.218
	L155.618,25l11.743,18.261H157.907z"/>
<path fill="#FFFFFF" d="M173.735,30.344c0,3.934,2.406,6.81,6.693,6.81c3.346,0,4.99-0.939,6.928-2.877l4.639,4.521
	c-3.111,3.111-6.105,4.814-11.625,4.814c-7.222,0-14.15-3.289-14.15-15.678c0-9.982,5.401-15.618,13.328-15.618
	c8.514,0,13.328,6.224,13.328,14.62v3.406H173.735z M184.655,21.83c-0.82-1.82-2.523-3.172-5.107-3.172s-4.287,1.351-5.108,3.172
	c-0.47,1.115-0.646,1.938-0.704,3.287h11.625C185.301,23.768,185.125,22.946,184.655,21.83z"/>
<path fill="#FFFFFF" d="M213.118,21.008c-1.174-1.175-2.172-1.82-4.051-1.82c-2.35,0-4.934,1.762-4.934,5.637v18.436H196.5V12.67
	h7.458v2.935c1.469-1.762,4.404-3.288,7.691-3.288c2.996,0,5.109,0.763,7.223,2.878L213.118,21.008z"/>
<path fill-rule="evenodd" clip-rule="evenodd" fill="#FFFFFF" d="M31.336,46.648c-0.44,0.211-1.039,0.163-1.66,0.183
	c-0.533,0.015-1.282,0.025-1.592-0.25c-0.169-0.149-0.218-0.473-0.228-0.66c-0.014-0.226,0.043-0.501,0.091-0.752
	c0.057-0.298,0.115-0.678,0-0.841c-0.134-0.19-0.611-0.111-0.864-0.252c-0.269-0.149-0.346-0.509-0.431-0.909
	c-0.028-0.126-0.104-0.242-0.116-0.342c-0.075-0.614,0.131-1.438,0.273-2.07c0.149-0.668,0.345-1.293,0.454-1.912
	c0.168-0.936,0.224-1.992,0.16-2.959c-0.032-0.502-0.101-0.899-0.022-1.318c0.073-0.394,0.237-0.722,0.318-1.115
	c0.025-0.124,0.005-0.272,0.022-0.41c0.017-0.12,0.087-0.219,0.092-0.318c0.014-0.262-0.071-0.582-0.092-0.909
	c-0.055-0.878,0.013-2.115,0.07-2.867c0.018-0.263,0.141-0.561-0.046-0.683c-0.913-0.014-1.745,0.164-2.596,0.273
	c-2.287,0.293-5.166,0.331-7.372-0.114c-0.209-0.042-0.419-0.046-0.614-0.091c-1.565-0.36-3.006-1.032-4.119-1.911
	c-0.171-0.136-0.375-0.282-0.568-0.433c-0.188-0.146-0.39-0.35-0.568-0.433c-0.892-0.414-2.073,0.063-2.434,0.637
	c-0.145,0.229-0.248,0.524-0.387,0.797c-0.134,0.26-0.25,0.535-0.365,0.797C8.155,29.13,7.49,30.415,6.9,31.766
	c-0.342,0.78-0.724,1.649-0.979,2.526c-0.542,1.859-0.036,4.35,0.387,6.098c0.038,0.16,0.124,0.321,0.182,0.5
	c0.136,0.424,0.422,0.985,0.751,1.275c0.172,0.15,0.466,0.241,0.66,0.41c0.244,0.209,0.426,0.624,0.614,0.978
	c0.079,0.148,0.189,0.314,0.296,0.5c0.226,0.393,0.304,0.745-0.138,0.979c-0.331,0.176-0.832,0.221-1.296,0.25
	c-0.211,0.054-0.144,0.339-0.272,0.478c-0.073,0.079-0.385,0.205-0.547,0.25c-0.61,0.178-1.642,0.167-2.116,0
	c-0.238-0.083-0.509-0.266-0.569-0.454c-0.118-0.371,0.176-0.843-0.091-1.139c-0.116-0.127-0.369-0.104-0.592-0.203
	c-0.317-0.141-0.621-0.438-0.773-0.82c-0.363-0.917-0.139-2.356-0.182-3.481c-0.012-0.328-0.057-0.681-0.068-1.046
	c-0.02-0.668-0.179-1.321-0.25-1.98c-0.035-0.32-0.142-0.595-0.205-0.887c-0.103-0.47-0.182-0.979-0.318-1.457
	c-0.15-0.524-0.154-1.034,0.023-1.479c0.049-0.125,0.18-0.239,0.249-0.41c0.107-0.257,0.144-0.56,0.137-0.797
	c-0.077-0.133-0.396-0.028-0.479-0.158c-0.189-1.438-0.406-2.886-0.522-4.392c-0.038-0.502-0.04-1.026-0.092-1.546
	c-0.099-1.029-0.016-2.076-0.113-3.072c-0.047-0.486-0.166-0.942-0.227-1.412c-0.175-1.319-0.543-3.014-0.274-4.391
	c0.174-0.884,0.489-1.601,1.002-2.252c0.355-0.456,0.74-0.894,1.161-1.299c0.4-0.387,0.864-0.771,1.342-1.114
	c0.308-0.222,0.634-0.479,0.977-0.638c0.764-0.349,1.757-0.658,2.8-0.706c1.048-0.044,2.234-0.052,3.276,0.139
	c0.993,0.179,1.982,0.353,2.958,0.545c0.957,0.188,1.894,0.447,2.798,0.683c0.117,0.03,0.22,0.103,0.343,0.136
	c0.288,0.079,0.613,0.097,0.934,0.182c0.842,0.231,1.952,0.343,2.979,0.343c1.118,0,2.127-0.03,3.05-0.25
	c0.137-0.033,0.242-0.104,0.387-0.159c0.145-0.056,0.319-0.046,0.454-0.092c0.093-0.032,0.189-0.132,0.296-0.182
	c0.532-0.254,0.983-0.51,1.458-0.842c0.373-0.263,0.682-0.488,1.181-0.683c0.222-0.086,0.445-0.204,0.659-0.273
	c0.473-0.15,0.984-0.29,1.346-0.523c0.565-0.363,0.983-0.886,1.455-1.296c0.491-0.431,0.985-0.841,1.502-1.253
	c1.045-0.833,2.107-1.594,3.094-2.389c0.499-0.402,1.052-0.779,1.64-1.114c1.147-0.655,2.309-1.427,3.957-1.548
	c0.646-0.048,1.328-0.066,1.981,0.022c0.181,0.025,0.427,0.126,0.592,0.091c0.181-0.038,0.312-0.312,0.432-0.522
	c0.246-0.436,0.421-0.726,0.638-1.252C44.919,0.313,44.863-0.01,45.194,0c0.339,0.013,0.281,0.88,0.296,1.207
	c0.02,0.396-0.048,0.93,0.023,1.205c0.048,0.191,0.303,0.473,0.569,0.477c0.183,0.004,0.306-0.146,0.477-0.25
	c0.179-0.103,0.344-0.166,0.455-0.25c0.271-0.202,0.592-0.538,0.865-0.819c0.226-0.231,0.577-0.774,0.957-0.728
	c0.646,0.077,0.004,1.031-0.138,1.342c-0.339,0.746-0.664,1.301-1.046,2.004c-0.158,0.289-0.521,0.678-0.524,0.978
	c0,0.212,0.181,0.351,0.274,0.569c0.044,0.104,0.069,0.216,0.114,0.317c0.223,0.516,0.39,1.239,0.567,1.844
	c0.15,0.509,0.272,1.046,0.457,1.547c0.18,0.49,0.438,0.952,0.637,1.433c0.051,0.126,0.062,0.281,0.114,0.411
	c0.416,1.062,0.818,2.275,1.317,3.299c0.205,0.416,0.481,0.935,0.479,1.548c-0.004,0.678-0.355,1.001-0.661,1.501
	c-0.158,0.265-0.395,0.668-0.635,0.751c-0.18,0.062-0.388-0.003-0.568,0.023c-0.256,0.036-0.434,0.201-0.663,0.228
	c-0.617,0.071-1.172-0.411-1.343-0.865c-0.056-0.153-0.03-0.364-0.065-0.546c-0.148-0.738-0.506-1.095-1.025-1.57
	c-0.329-0.302-0.583-0.533-1.001-0.751c-0.58-0.302-1.228-0.487-1.843-0.82c-0.228-0.12-0.512-0.241-0.706-0.203
	c-0.329,0.064-0.656,0.599-0.908,0.934c-1.606,2.116-3.026,4.291-4.599,6.371c-1.039,1.374-2.148,2.771-2.98,4.346
	c-0.21,0.396-0.334,0.858-0.5,1.32c-0.163,0.451-0.241,0.952-0.411,1.433c-0.604,1.73-0.792,3.837-1.341,5.644
	c-0.059,0.189-0.08,0.407-0.137,0.613c-0.252,0.922-0.505,1.98-0.797,2.959c-0.217,0.729-0.283,1.715-0.319,2.686
	c-0.033,0.898-0.077,2.181,0.252,2.752c0.172,0.304,0.789,0.413,1.023,0.729c0.161,0.218,0.271,0.646,0.433,0.934
	c0.112,0.198,0.435,0.623,0.41,0.933c-0.021,0.231-0.216,0.394-0.389,0.477c-0.19,0.095-0.475,0.037-0.657,0.138
	C31.451,46.259,31.548,46.51,31.336,46.648z"/>
<path fill="#FF6700" d="M253.177,12.318c-3.816,0-6.576,1.175-9.16,3.876c-1.938-2.643-4.697-3.876-8.102-3.876
	c-2.818,0-5.637,1.116-7.633,3.171V12.67h-7.457v30.591h7.633V24.766c0-4.17,2.701-5.578,5.107-5.578
	c2.408,0,5.051,1.408,5.051,5.578v18.495h7.633V24.59c0-3.994,2.76-5.402,5.107-5.402c2.408,0,5.051,1.408,5.051,5.578v18.495h7.633
	V23.709c0-3.348-0.881-6.225-3.348-8.69C258.99,13.317,256.23,12.318,253.177,12.318z"/>
<path fill="#FF6700" d="M286.353,31.166c0,4.168-2.701,5.577-5.109,5.577c-2.406,0-5.049-1.409-5.049-5.577V12.67h-7.633v19.553
	c0,3.346,0.647,6.223,3.111,8.689c1.703,1.703,4.17,2.701,7.223,2.701c2.818,0,5.637-1.057,7.633-3.171v2.818h7.457V12.67h-7.633
	V31.166z"/>
<path fill="#FF6700" d="M306.478,34.043V1.455h-7.633v33.057c0,4.346,2.643,8.749,8.924,8.749h4.346v-6.458h-2.936
	C307.241,36.803,306.478,35.864,306.478,34.043z"/>
<path fill="#FF6700" d="M340.138,26.938c0-8.396-4.814-14.62-13.328-14.62c-7.928,0-13.328,5.637-13.328,15.618
	c0,12.389,6.928,15.678,14.15,15.678c5.52,0,8.514-1.703,11.625-4.814l-4.639-4.521c-1.938,1.938-3.582,2.877-6.928,2.877
	c-4.287,0-6.693-2.877-6.693-6.81h19.141V26.938z M320.997,25.117c0.059-1.35,0.234-2.172,0.703-3.287
	c0.822-1.82,2.525-3.172,5.109-3.172c2.584,0,4.285,1.351,5.107,3.172c0.471,1.115,0.647,1.938,0.705,3.287H320.997z"/>
</svg>
