<?xml version="1.0" encoding="utf-8"?>
<!-- Generator: Adobe Illustrator 17.0.0, SVG Export Plug-In . SVG Version: 6.00 Build 0)  -->
<!DOCTYPE svg PUBLIC "-//W3C//DTD SVG 1.1//EN" "http://www.w3.org/Graphics/SVG/1.1/DTD/svg11.dtd">
<svg version="1.1" id="Artwork" xmlns="http://www.w3.org/2000/svg" xmlns:xlink="http://www.w3.org/1999/xlink" x="0px" y="0px"
	 width="497.75px" height="98.13px" viewBox="0 0 497.75 98.13" enable-background="new 0 0 497.75 98.13" xml:space="preserve">
<g>
	<path fill="#282829" d="M2.318,63.061c-1.086,1.702-1.357,3.353-1.328,4.648l0.285,15.788C1.555,95.013,23.282,98.13,40.319,98.13
		c14.527,0,38.591-2.38,38.363-14.651l-0.284-15.777V67.68l0-0.021c-0.034-1.286-0.379-2.903-1.507-4.57
		c0.711-1.115,1.295-2.436,1.325-4.654l-0.283-15.776l0-0.021l-0.001-0.022c-0.037-1.413-0.45-3.225-1.862-5.062
		c0.871-1.284,1.668-2.67,1.662-5.152l-0.32-17.767l-0.001-0.022l0-0.021C77.05,0.703,44.827,0,38.371,0
		C25.025,0,8.633,2.19,2.646,8.336c-2.247,2.307-2.68,4.695-2.644,6.303l0.322,17.777c0.106,2.112,0.806,3.752,1.864,5.107
		c-1.367,1.873-1.696,3.72-1.664,5.141l0.285,15.788C0.926,61.217,1.701,61.966,2.318,63.061z"/>
	<linearGradient id="SVGID_1_" gradientUnits="userSpaceOnUse" x1="11.9153" y1="54.811" x2="67.2013" y2="54.811">
		<stop  offset="0" style="stop-color:#282829"/>
		<stop  offset="0.2454" style="stop-color:#48484A"/>
		<stop  offset="0.9448" style="stop-color:#282829"/>
	</linearGradient>
	<path fill="url(#SVGID_1_)" d="M8.774,62.113v3.252c0.001-0.001,0.002-0.001,0.002-0.002c0,2.089,0,3.449,0,3.449
		c0,2.832,13.681,5.812,30.556,5.812c16.193,0,29.437-2.744,30.479-5.468v-6.998c-4.953,2.927-16.729,4.985-30.482,4.985
		C25.507,67.144,13.684,65.063,8.774,62.113z M54.766,41.038l-0.835,0.14c-3.284,0.424-21.059,1.338-28.541,0.116
		c2.17-0.39,3.009-0.549,5.059-1.199c-4.487,0.59-8.763,0.325-14.509-1.117c-3.152-0.648-5.493-2.069-7.165-3.979v5.468
		c0.001,0,0.002-0.001,0.002-0.001c0,1.777,0,2.902,0,2.902c0,2.833,13.681,5.813,30.556,5.813c16.193,0,29.437-2.745,30.479-5.471
		v-7.018C66.735,38.512,61.765,40.106,54.766,41.038z"/>
	<g>
		<path fill="#282829" d="M15.939,38.978c-3.652-0.752-6.214-2.54-7.91-4.927c1.064,2.071,2.659,4.455,6.807,5.756
			C26.327,43.414,31.92,42.25,31.92,42.25l-4.898,1.239c3.93,0.444,8.681,0.899,12.797,0.899c20.453,0,25.173-3.695,28.483-6.897
			c-3.101,1.482-7.583,2.755-13.536,3.547l-0.835,0.14c-3.284,0.424-21.059,1.338-28.541,0.116c2.17-0.39,3.009-0.549,5.059-1.199
			C25.961,40.685,21.686,40.42,15.939,38.978z"/>
		<path fill="#282829" d="M39.33,67.144c-13.363,0-24.858-1.944-30.044-4.739c3.06,4.06,15.444,7.1,30.266,7.1
			c15.328,0,28.048-3.25,30.544-7.519C65.321,65.003,53.354,67.144,39.33,67.144z"/>
		<path fill="#282829" d="M6.536,31.297c-0.004-0.01-0.009-0.019-0.012-0.029H6.515C6.522,31.277,6.529,31.287,6.536,31.297z"/>
	</g>
	<linearGradient id="SVGID_2_" gradientUnits="userSpaceOnUse" x1="71.2277" y1="66.3633" x2="3.3808" y2="66.3633">
		<stop  offset="0" style="stop-color:#FFD200"/>
		<stop  offset="0.4049" style="stop-color:#FFE26A"/>
		<stop  offset="0.9877" style="stop-color:#FFD200"/>
	</linearGradient>
	<path fill="url(#SVGID_2_)" d="M72.323,68.208v0.188v15.798v0.186c0-0.029-0.004-0.061-0.004-0.093
		c-0.205,4.414-14.895,7.976-32.989,7.976c-18.092,0-32.78-3.562-32.984-7.976C6.344,84.318,6.34,84.35,6.34,84.379v-0.186V68.396
		v-0.188c0,0.028,0.003,0.057,0.004,0.08c0.045-0.847,0.632-1.664,1.668-2.431c0.232-0.171,0.49-0.335,0.764-0.494
		c0,2.089,0,3.449,0,3.449c0,2.832,13.681,5.812,30.556,5.812c16.874,0,30.554-2.979,30.554-5.812v-3.446
		c0.274,0.159,0.531,0.322,0.761,0.491c1.041,0.767,1.629,1.584,1.672,2.431C72.319,68.265,72.323,68.236,72.323,68.208z
		 M72.319,43.417c-0.048-1.041-0.909-2.038-2.433-2.952v2.902c0,2.833-13.68,5.813-30.554,5.813c-16.875,0-30.556-2.98-30.556-5.813
		c0,0,0-1.125,0-2.902c-1.523,0.914-2.384,1.911-2.431,2.952C6.344,43.39,6.34,43.356,6.34,43.326v0.184v15.566v0.185
		c0-0.027,0.003-0.055,0.004-0.084c0.045,0.85,0.632,1.668,1.668,2.435c4.352,3.214,16.723,5.532,31.317,5.532
		c14.596,0,26.969-2.318,31.318-5.532c1.041-0.767,1.629-1.585,1.672-2.435c0,0.029,0.004,0.057,0.004,0.084v-0.185V43.51v-0.184
		C72.323,43.356,72.319,43.39,72.319,43.417z"/>
	<g>
		<path fill="#FFF797" d="M39.333,76.542c19.454-0.083,32.99-3.442,32.959-8.378c-0.093-0.803-0.656-1.58-1.645-2.307
			c-0.23-0.169-0.488-0.332-0.761-0.491v3.446c0,2.832-13.68,5.812-30.554,5.812c-16.875,0-30.556-2.979-30.556-5.812
			c0,0,0-1.36,0-3.449c-0.274,0.159-0.532,0.323-0.764,0.494c-0.985,0.727-1.545,1.5-1.64,2.306
			C6.34,73.67,20.007,76.572,39.333,76.542z"/>
		<path fill="#FFF797" d="M69.886,40.465v2.902c0,2.833-13.68,5.813-30.554,5.813c-16.875,0-30.556-2.98-30.556-5.813
			c0,0,0-1.125,0-2.902c-1.493,0.895-2.343,1.871-2.423,2.892c0.292,4.262,14.94,7.698,32.979,7.698
			c18.032,0,32.676-3.434,32.977-7.694C72.235,42.339,71.382,41.36,69.886,40.465z"/>
	</g>
	<linearGradient id="SVGID_3_" gradientUnits="userSpaceOnUse" x1="5.3038" y1="23.3348" x2="72.6923" y2="23.3348">
		<stop  offset="0" style="stop-color:#FFD200"/>
		<stop  offset="0.4049" style="stop-color:#FFE26A"/>
		<stop  offset="0.9877" style="stop-color:#FFD200"/>
	</linearGradient>
	<path fill="url(#SVGID_3_)" d="M49.227,21.184c-5.101,0.083-16.47,0.621-16.419-5.065c0-5.691,10.768-5.733,11.401-5.733
		c-1.123-0.057-3.813-0.953-2.494-1.862c1.259-0.867,7.141-1.633,13.678-1.518c0,0-16.406-2.974-28.865-0.886l1.461-1.359
		C22.012,5.662,9.691,7.626,7.462,17.06c-0.121-0.253-0.565-1.579-0.537-2.067c-3.211,9.317-2.351,21.662,9.012,24.001
		c5.746,1.442,10.022,1.708,14.509,1.117c-2.05,0.651-2.889,0.81-5.059,1.2c7.481,1.221,25.486,0.261,28.727-0.162l-0.001-0.001
		c8.003-1.065,14.001-3.091,16.903-5.234c1.082-0.797,1.674-1.65,1.674-2.535v-1.316c0,0,0-9.776,0-13.892
		c0-2.455,0.558-7.619-20.912-8.047C77.293,12.518,72.31,20.81,49.227,21.184z"/>
	<defs>
		<filter id="Adobe_OpacityMaskFilter" filterUnits="userSpaceOnUse" x="5.306" y="4.743" width="67.389" height="37.163">
			<feFlood  style="flood-color:white;flood-opacity:1" result="back"/>
			<feBlend  in="SourceGraphic" in2="back" mode="normal"/>
		</filter>
	</defs>
	<mask maskUnits="userSpaceOnUse" x="5.306" y="4.743" width="67.389" height="37.163" id="SVGID_4_">
		<g filter="url(#Adobe_OpacityMaskFilter)">
			
				<radialGradient id="SVGID_5_" cx="251.8788" cy="-10.9236" r="49.1965" gradientTransform="matrix(1.0877 0 0 1.0492 -255.8923 23.7045)" gradientUnits="userSpaceOnUse">
				<stop  offset="0" style="stop-color:#FFFFFF"/>
				<stop  offset="0.9877" style="stop-color:#000000"/>
			</radialGradient>
			<ellipse fill="url(#SVGID_5_)" cx="39.884" cy="21.13" rx="39.668" ry="31.305"/>
		</g>
	</mask>
	<path mask="url(#SVGID_4_)" fill="#FFC425" d="M49.229,21.167c-5.101,0.083-16.469,0.621-16.418-5.065
		c0-5.691,10.768-5.733,11.4-5.733c-1.123-0.057-3.813-0.953-2.494-1.862c1.259-0.866,7.141-1.633,13.678-1.518
		c0,0-16.406-2.973-28.866-0.884l1.461-1.361C22.014,5.646,9.693,7.609,7.464,17.044c-0.121-0.254-0.565-1.579-0.537-2.067
		c-3.21,9.317-2.351,21.662,9.013,24.001c5.746,1.442,10.022,1.707,14.509,1.117c-2.05,0.65-2.889,0.81-5.059,1.199
		c7.481,1.222,25.256,0.308,28.541-0.116l0.835-0.14c8.003-1.065,13.352-2.996,16.253-5.141c1.082-0.797,1.675-1.65,1.675-2.536
		v-1.316c0,0,0-9.775,0-13.891c0-2.455,0.557-7.619-20.912-8.046C77.295,12.5,72.312,20.794,49.229,21.167z"/>
	<defs>
		<filter id="Adobe_OpacityMaskFilter_1_" filterUnits="userSpaceOnUse" x="25.462" y="31.268" width="24.87" height="10.656">
			<feFlood  style="flood-color:white;flood-opacity:1" result="back"/>
			<feBlend  in="SourceGraphic" in2="back" mode="normal"/>
		</filter>
	</defs>
	<mask maskUnits="userSpaceOnUse" x="25.462" y="31.268" width="24.87" height="10.656" id="SVGID_6_">
		<g filter="url(#Adobe_OpacityMaskFilter_1_)">
			<linearGradient id="SVGID_7_" gradientUnits="userSpaceOnUse" x1="32.0562" y1="36.2036" x2="53.5265" y2="36.2036">
				<stop  offset="0" style="stop-color:#FFFFFF"/>
				<stop  offset="0.5951" style="stop-color:#1C1B1C"/>
			</linearGradient>
			<rect x="32.056" y="30.091" fill="url(#SVGID_7_)" width="21.47" height="12.226"/>
		</g>
	</mask>
	<path opacity="0.79" mask="url(#SVGID_6_)" fill="#FFF797" d="M25.462,41.323c9.162-1.648,22.974-8.715,23.619-10.056l1.251,9.839
		C47.286,42.145,31.125,42.168,25.462,41.323z"/>
	<defs>
		<filter id="Adobe_OpacityMaskFilter_2_" filterUnits="userSpaceOnUse" x="7.462" y="12.125" width="13.453" height="11.517">
			<feFlood  style="flood-color:white;flood-opacity:1" result="back"/>
			<feBlend  in="SourceGraphic" in2="back" mode="normal"/>
		</filter>
	</defs>
	<mask maskUnits="userSpaceOnUse" x="7.462" y="12.125" width="13.453" height="11.517" id="SVGID_8_">
		<g filter="url(#Adobe_OpacityMaskFilter_2_)">
			<linearGradient id="SVGID_9_" gradientUnits="userSpaceOnUse" x1="8.6315" y1="16.4806" x2="19.618" y2="24.2443">
				<stop  offset="0" style="stop-color:#FFFFFF"/>
				<stop  offset="0.0826" style="stop-color:#E1E2E3"/>
				<stop  offset="0.2725" style="stop-color:#AAACAF"/>
				<stop  offset="0.453" style="stop-color:#7F8184"/>
				<stop  offset="0.6188" style="stop-color:#5D5E61"/>
				<stop  offset="0.7668" style="stop-color:#414142"/>
				<stop  offset="0.8918" style="stop-color:#19191A"/>
				<stop  offset="0.9787" style="stop-color:#000000"/>
			</linearGradient>
			<path fill="url(#SVGID_9_)" d="M9.076,13.354c-0.777,1.004-1.256,2.488-1.613,3.707c0.438,5.158,9.267,6.419,13.453,6.581
				C9.853,21.694,8.856,15.781,9.076,13.354z"/>
		</g>
	</mask>
	<path opacity="0.37" mask="url(#SVGID_8_)" fill="#FFD200" d="M9.981,12.125c-1.694,1.88-2.161,3.717-2.519,4.935
		c0.438,5.158,9.267,6.419,13.453,6.581C9.853,21.694,6.825,17.345,9.981,12.125z"/>
	<defs>
		<filter id="Adobe_OpacityMaskFilter_3_" filterUnits="userSpaceOnUse" x="5.309" y="14.993" width="9.526" height="10.979">
			<feFlood  style="flood-color:white;flood-opacity:1" result="back"/>
			<feBlend  in="SourceGraphic" in2="back" mode="normal"/>
		</filter>
	</defs>
	<mask maskUnits="userSpaceOnUse" x="5.309" y="14.993" width="9.526" height="10.979" id="SVGID_10_">
		<g filter="url(#Adobe_OpacityMaskFilter_3_)">
			<linearGradient id="SVGID_11_" gradientUnits="userSpaceOnUse" x1="7.6055" y1="17.0946" x2="10.014" y2="24.148">
				<stop  offset="0" style="stop-color:#FFFFFF"/>
				<stop  offset="0.1575" style="stop-color:#D7D8DA"/>
				<stop  offset="0.5768" style="stop-color:#7E8082"/>
				<stop  offset="0.8661" style="stop-color:#434344"/>
				<stop  offset="1" style="stop-color:#000000"/>
			</linearGradient>
			<path fill="url(#SVGID_11_)" d="M6.925,14.993c0,0,0.512,6.602,7.911,7.832l-9.473,3.148C5.363,25.973,4.861,20.957,6.925,14.993
				z"/>
		</g>
	</mask>
	<path opacity="0.75" mask="url(#SVGID_10_)" fill="#FFF797" d="M6.925,14.993c0,0,0.512,6.602,7.911,7.832l-9.473,3.148
		C5.363,25.973,4.861,20.957,6.925,14.993z"/>
	<defs>
		<filter id="Adobe_OpacityMaskFilter_4_" filterUnits="userSpaceOnUse" x="22.212" y="6.815" width="50.245" height="17.379">
			<feFlood  style="flood-color:white;flood-opacity:1" result="back"/>
			<feBlend  in="SourceGraphic" in2="back" mode="normal"/>
		</filter>
	</defs>
	<mask maskUnits="userSpaceOnUse" x="22.212" y="6.815" width="50.245" height="17.379" id="SVGID_12_">
		<g filter="url(#Adobe_OpacityMaskFilter_4_)">
			
				<radialGradient id="SVGID_13_" cx="364.9376" cy="660.0408" r="21.2003" gradientTransform="matrix(1.2355 0 0 0.4899 -415.0648 -307.9838)" gradientUnits="userSpaceOnUse">
				<stop  offset="0" style="stop-color:#FFFFFF"/>
				<stop  offset="0.6564" style="stop-color:#FFFFFF"/>
				<stop  offset="1" style="stop-color:#000000"/>
			</radialGradient>
			<path fill="url(#SVGID_13_)" d="M74.248,15.986c0,5.567-11.376,10.075-25.408,10.075s-25.408-4.508-25.408-10.075
				c0-5.562,11.375-10.071,25.408-10.071S74.248,10.425,74.248,15.986z"/>
		</g>
	</mask>
	<linearGradient id="SVGID_14_" gradientUnits="userSpaceOnUse" x1="37.2804" y1="26.8757" x2="49.0142" y2="13.9686">
		<stop  offset="0.0429" style="stop-color:#FFF797"/>
		<stop  offset="0.9448" style="stop-color:#FFC425"/>
	</linearGradient>
	<path opacity="0.68" mask="url(#SVGID_12_)" fill="url(#SVGID_14_)" d="M51.779,10.124c25.514,2.394,20.531,10.686-2.552,11.06
		c-5.101,0.083-16.47,0.621-16.419-5.065c0-5.691,10.768-5.733,11.401-5.733c-1.123-0.057-3.813-0.953-2.494-1.862
		c1.259-0.867,7.141-1.633,13.678-1.518c0,0-0.135-0.024-0.38-0.065c-1.945-0.146-4.02-0.169-6.206-0.047
		C34.726,6.913,21.52,10.159,22.24,16.582c-0.062,5.676,11.455,8.423,25.432,7.402c13.866-0.541,24.963-3.381,24.782-8.009
		c0,0,0-0.001,0-0.002C71.627,13.458,67.958,10.446,51.779,10.124z"/>
</g>
<g>
	<path fill="#FFFFFF" d="M108.156,11.062h54.051V25.26h-38.435v15.108h33.871v14.198h-33.871v30.08h-15.616V11.062z"/>
	<path fill="#FFFFFF" d="M167.989,10.92h16.226v13.69h-16.226V10.92z M168.394,30.592h15.413v54.055h-15.413V30.592z"/>
	<path fill="#FFFFFF" d="M190.04,30.292h15.413v10.952c3.145-7.504,8.216-12.371,17.343-11.965v16.123h-0.812
		c-10.241,0-16.531,6.187-16.531,19.166v20.078H190.04V30.292z"/>
	<path fill="#FFFFFF" d="M224.341,57.774V57.57c0-15.515,11.053-28.291,26.872-28.291c18.152,0,26.469,14.095,26.469,29.509
		c0,1.218-0.102,2.638-0.203,4.056h-37.826c1.521,6.999,6.389,10.647,13.285,10.647c5.172,0,8.925-1.621,13.182-5.576l8.824,7.808
		c-5.07,6.288-12.371,10.142-22.208,10.142C236.407,85.864,224.341,74.405,224.341,57.774z M262.674,53.211
		c-0.914-6.896-4.972-11.559-11.461-11.559c-6.389,0-10.545,4.561-11.765,11.559H262.674z"/>
	<path fill="#FFFFFF" d="M297.732,77.548v7.099h-15.413V10.619h15.413v27.482c3.751-5.07,8.924-8.821,16.936-8.821
		c12.676,0,24.744,9.937,24.744,28.089v0.202c0,18.152-11.866,28.091-24.744,28.091C306.452,85.661,301.383,81.908,297.732,77.548z
		 M323.996,57.57v-0.202c0-9.025-6.083-15.008-13.282-15.008c-7.201,0-13.185,5.982-13.185,15.008v0.202
		c0,9.026,5.983,15.01,13.185,15.01C317.913,72.58,323.996,66.697,323.996,57.57z"/>
	<path fill="#FFFFFF" d="M342.151,69.029v-0.201c0-11.865,9.024-17.341,21.902-17.341c5.478,0,9.433,0.911,13.286,2.229v-0.912
		c0-6.388-3.955-9.938-11.662-9.938c-5.881,0-10.041,1.114-15.008,2.941l-3.854-11.764c5.984-2.638,11.865-4.361,21.093-4.361
		c8.416,0,14.501,2.232,18.356,6.085c4.057,4.056,5.882,10.04,5.882,17.34v31.538h-14.907v-5.881
		c-3.752,4.157-8.923,6.896-16.429,6.896C350.567,85.661,342.151,79.779,342.151,69.029z M377.544,65.481v-2.738
		c-2.638-1.218-6.086-2.027-9.837-2.027c-6.592,0-10.648,2.637-10.648,7.504v0.203c0,4.157,3.448,6.591,8.415,6.591
		C372.675,75.014,377.544,71.059,377.544,65.481z"/>
	<path fill="#FFFFFF" d="M397.249,77.447l6.592-10.142c5.883,4.26,12.066,6.49,17.14,6.49c4.461,0,6.489-1.622,6.489-4.056v-0.202
		c0-3.347-5.272-4.463-11.257-6.288c-7.604-2.23-16.226-5.78-16.226-16.327V46.72c0-11.053,8.923-17.238,19.876-17.238
		c6.897,0,14.399,2.332,20.282,6.287l-5.883,10.648c-5.375-3.146-10.747-5.071-14.702-5.071c-3.752,0-5.679,1.622-5.679,3.753V45.3
		c0,3.043,5.171,4.462,11.054,6.49c7.605,2.536,16.426,6.187,16.426,16.125v0.203c0,12.067-9.024,17.543-20.788,17.543
		C412.968,85.661,404.449,83.127,397.249,77.447z"/>
	<path fill="#FFFFFF" d="M444.409,57.774V57.57c0-15.515,11.053-28.291,26.874-28.291c18.152,0,26.467,14.095,26.467,29.509
		c0,1.218-0.102,2.638-0.204,4.056h-37.822c1.519,6.999,6.388,10.647,13.282,10.647c5.172,0,8.923-1.621,13.185-5.576l8.821,7.808
		c-5.07,6.288-12.373,10.142-22.21,10.142C456.478,85.864,444.409,74.405,444.409,57.774z M482.742,53.211
		c-0.912-6.896-4.969-11.559-11.459-11.559c-6.389,0-10.547,4.561-11.764,11.559H482.742z"/>
</g>
</svg>
